# xmcd
#
# Track frame offsets:
# 150
# 18727
# 35585
# 52034
# 67560
# 85502
# 99147
# 115771
# 131648
# 162009
# 186075
#
# Disc length: 2683 seconds
#
# Revision: 1
# Processed by: cddbd v1.5.1PL2 Copyright (c) Steve Scherf et al.
# Submitted via: CedeCatalogueitor 2.6.0.6 http://personales.ya.com/cdcatalogueitor
#
DISCID=7f0a790b
DTITLE=Recopilatorios - Febrero 2003
DYEAR=2003
DGENRE=Pop
TTITLE0=Devuelveme La Vida - A.orozco Y Malu
TTITLE1=La Caña Del Sur - Zalamea
TTITLE2=Tue Es Foutu - Ingrid
TTITLE3=Un Juego De Dos - Andermay
TTITLE4=Just Like A Pill - Pink
TTITLE5=Dime - Beth
TTITLE6=Everymore To Me - Michele Branch
TTITLE7=La Vida Sigue Igual - La Loca Maria
TTITLE8=Libertine - Kate Ryan
TTITLE9=I Drove All Night - Celine Dion
TTITLE10=Bounus 
EXTD=
EXTT0=
EXTT1=
EXTT2=
EXTT3=
EXTT4=
EXTT5=
EXTT6=
EXTT7=
EXTT8=
EXTT9=
EXTT10=
PLAYORDER=
